<mxfile host="Electron" modified="2024-03-12T16:58:29.697Z" agent="Mozilla/5.0 (Windows NT 10.0; Win64; x64) AppleWebKit/537.36 (KHTML, like Gecko) draw.io/23.0.2 Chrome/120.0.6099.109 Electron/28.1.0 Safari/537.36" etag="2fq5xyOZfM1q83e46OuK" version="23.0.2" type="device">
  <diagram name="Page-1" id="7e0a89b8-554c-2b80-1dc8-d5c74ca68de4">
    <mxGraphModel dx="1098" dy="597" grid="1" gridSize="10" guides="1" tooltips="1" connect="1" arrows="1" fold="1" page="1" pageScale="1" pageWidth="1100" pageHeight="850" background="none" math="0" shadow="0">
      <root>
        <mxCell id="0" />
        <mxCell id="1" parent="0" />
        <mxCell id="5VnxXq-jSa72qacIvuh0-2" value="3V" style="verticalLabelPosition=bottom;shadow=0;dashed=0;align=center;fillColor=strokeColor;html=1;verticalAlign=top;strokeWidth=1;shape=mxgraph.electrical.miscellaneous.monocell_battery;direction=north;" parent="1" vertex="1">
          <mxGeometry x="140" y="300" width="60" height="100" as="geometry" />
        </mxCell>
        <mxCell id="5VnxXq-jSa72qacIvuh0-12" style="edgeStyle=orthogonalEdgeStyle;rounded=0;orthogonalLoop=1;jettySize=auto;html=1;exitX=1;exitY=0.5;exitDx=0;exitDy=0;" parent="1" source="5VnxXq-jSa72qacIvuh0-3" target="5VnxXq-jSa72qacIvuh0-9" edge="1">
          <mxGeometry relative="1" as="geometry" />
        </mxCell>
        <mxCell id="5VnxXq-jSa72qacIvuh0-3" value="Buck 1.8V&lt;br&gt;(1)" style="rounded=1;whiteSpace=wrap;html=1;" parent="1" vertex="1">
          <mxGeometry x="480" y="270" width="120" height="60" as="geometry" />
        </mxCell>
        <mxCell id="5VnxXq-jSa72qacIvuh0-6" value="" style="endArrow=classic;html=1;rounded=0;exitX=1;exitY=0.5;exitDx=0;exitDy=0;exitPerimeter=0;entryX=0;entryY=0.5;entryDx=0;entryDy=0;" parent="1" source="5VnxXq-jSa72qacIvuh0-2" target="5VnxXq-jSa72qacIvuh0-3" edge="1">
          <mxGeometry width="50" height="50" relative="1" as="geometry">
            <mxPoint x="520" y="440" as="sourcePoint" />
            <mxPoint x="570" y="390" as="targetPoint" />
          </mxGeometry>
        </mxCell>
        <mxCell id="5VnxXq-jSa72qacIvuh0-11" style="edgeStyle=orthogonalEdgeStyle;rounded=0;orthogonalLoop=1;jettySize=auto;html=1;exitX=1;exitY=0.5;exitDx=0;exitDy=0;entryX=0;entryY=0.5;entryDx=0;entryDy=0;" parent="1" source="5VnxXq-jSa72qacIvuh0-7" target="5VnxXq-jSa72qacIvuh0-10" edge="1">
          <mxGeometry relative="1" as="geometry" />
        </mxCell>
        <mxCell id="6hvNj2HDraOlzzgojFOX-3" style="edgeStyle=orthogonalEdgeStyle;rounded=0;orthogonalLoop=1;jettySize=auto;html=1;exitX=1;exitY=0.5;exitDx=0;exitDy=0;entryX=0;entryY=0.5;entryDx=0;entryDy=0;" parent="1" source="5VnxXq-jSa72qacIvuh0-7" target="-9V9hBB2XFLB6apKrfxP-1" edge="1">
          <mxGeometry relative="1" as="geometry">
            <mxPoint x="440" y="140" as="targetPoint" />
          </mxGeometry>
        </mxCell>
        <mxCell id="5VnxXq-jSa72qacIvuh0-7" value="5V boost&lt;br&gt;(3)" style="rounded=1;whiteSpace=wrap;html=1;" parent="1" vertex="1">
          <mxGeometry x="250" y="160" width="120" height="60" as="geometry" />
        </mxCell>
        <mxCell id="5VnxXq-jSa72qacIvuh0-8" value="" style="endArrow=classic;html=1;rounded=0;entryX=0;entryY=0.5;entryDx=0;entryDy=0;exitX=1;exitY=0.5;exitDx=0;exitDy=0;exitPerimeter=0;" parent="1" source="5VnxXq-jSa72qacIvuh0-2" target="5VnxXq-jSa72qacIvuh0-7" edge="1">
          <mxGeometry width="50" height="50" relative="1" as="geometry">
            <mxPoint x="520" y="440" as="sourcePoint" />
            <mxPoint x="570" y="390" as="targetPoint" />
            <Array as="points">
              <mxPoint x="170" y="190" />
            </Array>
          </mxGeometry>
        </mxCell>
        <mxCell id="5VnxXq-jSa72qacIvuh0-9" value="MCU&lt;br&gt;(2)" style="rounded=1;whiteSpace=wrap;html=1;" parent="1" vertex="1">
          <mxGeometry x="690" y="270" width="120" height="60" as="geometry" />
        </mxCell>
        <mxCell id="5VnxXq-jSa72qacIvuh0-10" value="Sensor 3mA &lt;br&gt;(4)" style="rounded=1;whiteSpace=wrap;html=1;" parent="1" vertex="1">
          <mxGeometry x="640" y="160" width="120" height="60" as="geometry" />
        </mxCell>
        <mxCell id="-9V9hBB2XFLB6apKrfxP-1" value="Resistor&lt;br&gt;(5)" style="rounded=1;whiteSpace=wrap;html=1;" parent="1" vertex="1">
          <mxGeometry x="460" y="70" width="120" height="60" as="geometry" />
        </mxCell>
        <mxCell id="-9V9hBB2XFLB6apKrfxP-3" value="(0)" style="text;html=1;strokeColor=none;fillColor=none;align=center;verticalAlign=middle;whiteSpace=wrap;rounded=0;" parent="1" vertex="1">
          <mxGeometry x="90" y="330" width="60" height="30" as="geometry" />
        </mxCell>
        <mxCell id="-9V9hBB2XFLB6apKrfxP-4" value="V&lt;sub&gt;0&lt;/sub&gt;" style="text;html=1;strokeColor=none;fillColor=none;align=center;verticalAlign=middle;whiteSpace=wrap;rounded=0;" parent="1" vertex="1">
          <mxGeometry x="170" y="310" width="60" height="30" as="geometry" />
        </mxCell>
        <mxCell id="-9V9hBB2XFLB6apKrfxP-6" value="V&lt;span style=&quot;font-size: 10px;&quot;&gt;1&lt;/span&gt;" style="text;html=1;strokeColor=none;fillColor=none;align=center;verticalAlign=middle;whiteSpace=wrap;rounded=0;" parent="1" vertex="1">
          <mxGeometry x="580" y="280" width="60" height="30" as="geometry" />
        </mxCell>
        <mxCell id="-9V9hBB2XFLB6apKrfxP-9" value="V&lt;span style=&quot;font-size: 10px;&quot;&gt;2&lt;/span&gt;" style="text;html=1;strokeColor=none;fillColor=none;align=center;verticalAlign=middle;whiteSpace=wrap;rounded=0;" parent="1" vertex="1">
          <mxGeometry x="790" y="280" width="60" height="30" as="geometry" />
        </mxCell>
        <mxCell id="-9V9hBB2XFLB6apKrfxP-10" value="V&lt;span style=&quot;font-size: 10px;&quot;&gt;3&lt;/span&gt;" style="text;html=1;strokeColor=none;fillColor=none;align=center;verticalAlign=middle;whiteSpace=wrap;rounded=0;" parent="1" vertex="1">
          <mxGeometry x="480" y="170" width="60" height="30" as="geometry" />
        </mxCell>
        <mxCell id="-9V9hBB2XFLB6apKrfxP-11" value="V&lt;span style=&quot;font-size: 10px;&quot;&gt;4&lt;/span&gt;" style="text;html=1;strokeColor=none;fillColor=none;align=center;verticalAlign=middle;whiteSpace=wrap;rounded=0;" parent="1" vertex="1">
          <mxGeometry x="740" y="175" width="60" height="30" as="geometry" />
        </mxCell>
        <mxCell id="-9V9hBB2XFLB6apKrfxP-12" value="I&lt;sub&gt;0&lt;/sub&gt;" style="text;html=1;strokeColor=none;fillColor=none;align=center;verticalAlign=middle;whiteSpace=wrap;rounded=0;" parent="1" vertex="1">
          <mxGeometry x="150" y="360" width="60" height="30" as="geometry" />
        </mxCell>
        <mxCell id="-9V9hBB2XFLB6apKrfxP-13" value="I&lt;span style=&quot;font-size: 10px;&quot;&gt;1&lt;/span&gt;" style="text;html=1;strokeColor=none;fillColor=none;align=center;verticalAlign=middle;whiteSpace=wrap;rounded=0;" parent="1" vertex="1">
          <mxGeometry x="420" y="280" width="60" height="30" as="geometry" />
        </mxCell>
        <mxCell id="-9V9hBB2XFLB6apKrfxP-15" value="I&lt;span style=&quot;font-size: 10px;&quot;&gt;3&lt;/span&gt;" style="text;html=1;strokeColor=none;fillColor=none;align=center;verticalAlign=middle;whiteSpace=wrap;rounded=0;" parent="1" vertex="1">
          <mxGeometry x="180" y="170" width="60" height="30" as="geometry" />
        </mxCell>
        <mxCell id="-9V9hBB2XFLB6apKrfxP-17" value="I&lt;span style=&quot;font-size: 10px;&quot;&gt;5&lt;/span&gt;" style="text;html=1;strokeColor=none;fillColor=none;align=center;verticalAlign=middle;whiteSpace=wrap;rounded=0;" parent="1" vertex="1">
          <mxGeometry x="400" y="70" width="60" height="30" as="geometry" />
        </mxCell>
        <mxCell id="-9V9hBB2XFLB6apKrfxP-18" value="I&lt;span style=&quot;font-size: 10px;&quot;&gt;2&lt;/span&gt;" style="text;html=1;strokeColor=none;fillColor=none;align=center;verticalAlign=middle;whiteSpace=wrap;rounded=0;" parent="1" vertex="1">
          <mxGeometry x="640" y="280" width="60" height="30" as="geometry" />
        </mxCell>
        <mxCell id="IPDYk8TGeTQSJG-qspTb-4" style="edgeStyle=orthogonalEdgeStyle;rounded=0;orthogonalLoop=1;jettySize=auto;html=1;exitX=1;exitY=0.5;exitDx=0;exitDy=0;entryX=0;entryY=0.5;entryDx=0;entryDy=0;" parent="1" source="IPDYk8TGeTQSJG-qspTb-1" target="IPDYk8TGeTQSJG-qspTb-3" edge="1">
          <mxGeometry relative="1" as="geometry" />
        </mxCell>
        <mxCell id="IPDYk8TGeTQSJG-qspTb-1" value="Linreg&lt;br&gt;(6)" style="rounded=1;whiteSpace=wrap;html=1;" parent="1" vertex="1">
          <mxGeometry x="630" y="70" width="120" height="60" as="geometry" />
        </mxCell>
        <mxCell id="IPDYk8TGeTQSJG-qspTb-3" value="ADC&lt;br&gt;(7)" style="rounded=1;whiteSpace=wrap;html=1;" parent="1" vertex="1">
          <mxGeometry x="850" y="70" width="120" height="60" as="geometry" />
        </mxCell>
        <mxCell id="IPDYk8TGeTQSJG-qspTb-5" value="I&lt;span style=&quot;font-size: 10px;&quot;&gt;6&lt;/span&gt;" style="text;html=1;strokeColor=none;fillColor=none;align=center;verticalAlign=middle;whiteSpace=wrap;rounded=0;" parent="1" vertex="1">
          <mxGeometry x="570" y="80" width="60" height="30" as="geometry" />
        </mxCell>
        <mxCell id="IPDYk8TGeTQSJG-qspTb-6" value="I&lt;span style=&quot;font-size: 10px;&quot;&gt;7&lt;/span&gt;" style="text;html=1;strokeColor=none;fillColor=none;align=center;verticalAlign=middle;whiteSpace=wrap;rounded=0;" parent="1" vertex="1">
          <mxGeometry x="800" y="80" width="60" height="30" as="geometry" />
        </mxCell>
        <mxCell id="IPDYk8TGeTQSJG-qspTb-7" value="V&lt;span style=&quot;font-size: 10px;&quot;&gt;6&lt;/span&gt;" style="text;html=1;strokeColor=none;fillColor=none;align=center;verticalAlign=middle;whiteSpace=wrap;rounded=0;" parent="1" vertex="1">
          <mxGeometry x="740" y="80" width="60" height="30" as="geometry" />
        </mxCell>
        <mxCell id="IPDYk8TGeTQSJG-qspTb-9" value="V&lt;span style=&quot;font-size: 10px;&quot;&gt;7&lt;/span&gt;" style="text;html=1;strokeColor=none;fillColor=none;align=center;verticalAlign=middle;whiteSpace=wrap;rounded=0;" parent="1" vertex="1">
          <mxGeometry x="950" y="85" width="60" height="30" as="geometry" />
        </mxCell>
        <mxCell id="6hvNj2HDraOlzzgojFOX-4" value="" style="endArrow=classic;html=1;rounded=0;exitX=1;exitY=0.5;exitDx=0;exitDy=0;entryX=0;entryY=0.5;entryDx=0;entryDy=0;" parent="1" source="-9V9hBB2XFLB6apKrfxP-1" target="IPDYk8TGeTQSJG-qspTb-1" edge="1">
          <mxGeometry width="50" height="50" relative="1" as="geometry">
            <mxPoint x="580" y="150" as="sourcePoint" />
            <mxPoint x="570" y="290" as="targetPoint" />
          </mxGeometry>
        </mxCell>
      </root>
    </mxGraphModel>
  </diagram>
</mxfile>
